<?xml version="1.0" standalone="no"?>
<!DOCTYPE svg PUBLIC "-//W3C//DTD SVG 20010904//EN"
 "http://www.w3.org/TR/2001/REC-SVG-20010904/DTD/svg10.dtd">
<svg version="1.0" xmlns="http://www.w3.org/2000/svg"
 width="373.166157pt" height="375.500000pt" viewBox="0 0 373.166157 375.500000"
 preserveAspectRatio="xMidYMid meet">
<metadata>
Created by potrace 1.12, written by Peter Selinger 2001-2015
</metadata>
<g transform="translate(-4.833843,378.000000) scale(0.100000,-0.100000)"
fill="#000000" stroke="none">
<path d="M50 3766 c14 -7 307 -136 651 -286 l626 -274 273 -625 c150 -344 279
-637 286 -651 11 -21 13 142 14 913 l0 937 -937 0 c-771 -1 -934 -3 -913 -14z"/>
<path d="M2040 3720 c74 -33 368 -162 653 -287 l519 -228 269 -615 c148 -338
275 -628 283 -645 13 -27 15 78 15 903 l1 932 -937 0 -938 -1 135 -59z"/>
<path d="M1915 1890 c243 -103 1283 -564 1292 -573 6 -7 138 -300 292 -652
l281 -640 0 938 0 937 -942 -1 c-525 0 -934 -4 -923 -9z"/>
</g>
</svg>
